<svg xmlns="http://www.w3.org/2000/svg" viewBox="0 0 235.24 65.29"><defs><style>.cls-1{fill:#fff;}</style></defs><title>jitterDashLogo</title><g id="Layer_2" data-name="Layer 2"><g id="Layer_1-2" data-name="Layer 1"><path class="cls-1" d="M23.71,17c-1.87-4.18-.94-5.62,3.67-6.34,1.08-.22,2.16-.14,3.17-.43a17.81,17.81,0,0,0,3.89-1.37c2-1,2.09-3.31.29-4.75a8.61,8.61,0,0,0-5-1.51,35.6,35.6,0,0,0-16.35,3.1C10,7.15,6.65,8.52,3.26,10.1A14.61,14.61,0,0,0,.53,11.61a2,2,0,0,0,.14,2.81,5,5,0,0,0,2.81,1.22c1.8.14,3.53.14,4.68.22a11,11,0,0,0,2.16-.22c3.31-.43,3.53.72,4,2.88,1.3,5.47,2.38,11,3.38,16.49a17,17,0,0,1-1,8.86c-1.87,5.76-3.1,6.19-8,2.81A6.92,6.92,0,0,0,3.84,45a2.86,2.86,0,0,0-2.52,3.38A8,8,0,0,0,2.9,51.65c5.54,8.42,21.31,6.26,24-2.59A34.48,34.48,0,0,0,29,39.34a40.13,40.13,0,0,0-2.09-14A68.63,68.63,0,0,0,23.71,17Z"/><path class="cls-1" d="M122.35,41.78a20.78,20.78,0,0,0-2.09,2.3c-1.66,2-3.31,4-5,6a16.4,16.4,0,0,1-2.3,2.16c-1,.72-2.23,1.73-3.46,1-1.51-.94-.65-2.45-.22-3.53A66.84,66.84,0,0,1,113.92,39a12.53,12.53,0,0,0,1.3-2.38,2.4,2.4,0,0,0-.36-2.88,2.43,2.43,0,0,0-2.88-.5,19.74,19.74,0,0,0-2.59,1.66,3.4,3.4,0,0,1-1.8.79c-.43-.07-.79-.22-.65-.72s.43-.86.58-1.37c.58-1.73,0-3-1.51-3.46s-2.66.36-3.17,2c-.65,2.23-.36,4,1.73,5.47,1.2.89,1.29,1.11.9,2.07a1.54,1.54,0,0,0-.18.16c-.94.86-6.12,6.12-7.06,7.06a20.74,20.74,0,0,1-5.47,4.25,2.29,2.29,0,0,1-3.1-.79,6.38,6.38,0,0,1-.94-4.82,1.3,1.3,0,0,1,.94-1.15c.5-.14,1-.22,1.51-.36,4.32-1.15,7.13-4,9-7.92,1-2.23.58-3.89-1.22-5.62a7,7,0,0,0-9.22-.72,19.87,19.87,0,0,0-8.3,14.08c-1,1.43-2,2.84-3.08,4.21a10.22,10.22,0,0,1-3.46,3.1c-.58.22-1.44-.22-1.37-.86a13.07,13.07,0,0,1,.22-2.3c1.15-5.47,2.3-10.94,3.6-16.42,1.08-4.25.36-5.47,6.41-5.4a7.6,7.6,0,0,0,1.8-.14,11.74,11.74,0,0,0,2.23-.79,2.71,2.71,0,0,0,1.87-2.45,3.26,3.26,0,0,0-1.73-2.66,5.32,5.32,0,0,0-3.1-.86c-4.54.14-5.11-.86-5-4.68a3.65,3.65,0,0,0-.14-.94,3.69,3.69,0,0,0-4.1-3A4.65,4.65,0,0,0,72,12.55a22.65,22.65,0,0,0-2.23,4.1,3.93,3.93,0,0,1-4,2.59c-.7,0-1.42-.05-2.13,0-2.78-.23-3.18-1.46-3.12-4.65a3.65,3.65,0,0,0-.14-.94,3.69,3.69,0,0,0-4.1-3,4.65,4.65,0,0,0-3.53,1.94,22.65,22.65,0,0,0-2.23,4.1,3.93,3.93,0,0,1-4,2.59,20.3,20.3,0,0,0-4.18.14,32.49,32.49,0,0,0-4.61.86,1.93,1.93,0,0,0-1.44,1.66,1.68,1.68,0,0,0,.21.79A2.5,2.5,0,0,0,37,25.22a4.45,4.45,0,0,0,5.9.79,2.63,2.63,0,0,0,.72-.85c1.23,0,2.5-.15,3.31.78,1.3,1.51,0,3.31-.22,4.9L44.3,45.17c0,.36,0,.71,0,1.06l-.25.45c-.94,1.37-1.87,2.81-2.88,4.18a5.48,5.48,0,0,1-2.74,2,1.33,1.33,0,0,1-1.8-.94A8.87,8.87,0,0,1,37,48c.94-3.6,1.94-7.27,3.24-10.8A43.52,43.52,0,0,0,41.71,32a2.6,2.6,0,0,0-2.09-2.88,4.24,4.24,0,0,0-5.18,2.38c-2.66,5-4.68,10.15-4.61,15.91.07,1.44.07,2.88.29,4.32a4.62,4.62,0,0,0,3.46,3.89c2.66.72,5.47.65,7.7-1.3A20,20,0,0,0,45,49.78,12.81,12.81,0,0,0,46,51.94c2.59,4.61,7.13,5.54,10.8,3.74A24.66,24.66,0,0,0,64.38,50a12.79,12.79,0,0,0,.87,2c2.59,4.61,7.13,5.54,10.8,3.74a24.9,24.9,0,0,0,6.53-4.58,9,9,0,0,0,7.87,4,9.11,9.11,0,0,0,5-1.37A46.59,46.59,0,0,0,102,48a5.85,5.85,0,0,0,.1,2.31c.86,4,3.53,5.11,7.85,5.69a11,11,0,0,0,6.26-2.88,52.68,52.68,0,0,0,7.85-9.07,2.92,2.92,0,0,0,.36-.65,1.32,1.32,0,0,0-.29-1.73A1.41,1.41,0,0,0,122.35,41.78ZM59.06,48a10.22,10.22,0,0,1-3.46,3.1c-.58.22-1.44-.22-1.37-.86a13.07,13.07,0,0,1,.22-2.3c1.15-5.47,2.3-10.94,3.6-16.42,1.08-4.25.36-5.47,6.41-5.4A7.68,7.68,0,0,0,66.24,26c1.19,1.5-.06,3.26-.27,4.82l-1.61,9.71-.69,1C62.23,43.8,60.72,46,59.06,48Zm30.6-8.57a12.06,12.06,0,0,1,3.46-5.9,1.36,1.36,0,0,1,1.37-.43c.58.14.65.72.72,1.22a5.8,5.8,0,0,1,.07,1.15A5.91,5.91,0,0,1,92,41.14a1.76,1.76,0,0,1-1.87,0C89.44,40.78,89.44,40.13,89.66,39.48Z"/><path class="cls-1" d="M167.56,21.77A25.71,25.71,0,0,0,163.1,8.23c-3.82-6-10.22-7.92-16.13-5-1.37.72-2.74,2-4.25,2.09-2.09.14-2.09-2.52-3.53-3.67a9.1,9.1,0,0,0-.86-.72,4.64,4.64,0,0,0-4.61-.58c-1.73.79-2.09,2.3-2,4,.22,2.74.5,5.62.79,8.35,1,7.56,2.16,15.12,2,22.83-.07,5.18.79,10.37,1.22,15.55.36,4.39,3.1,6.84,7.78,6.41,6.19-.5,11.81-2.66,15.34-8.14,5-7.63,8.5-15.91,8.78-25.27C167.64,23.35,167.64,22.56,167.56,21.77ZM147.69,37.1a168.93,168.93,0,0,0-2.81-20.23c-.58-3.38.72-5.83,3.38-7.78a2,2,0,0,1,3,1,22.41,22.41,0,0,1,1.3,8.14A36.32,36.32,0,0,1,147.69,37.1Z"/><path class="cls-1" d="M234.67,43.15a2,2,0,0,0-1.3.14c-.79.36-1,1.08-1.3,1.87-.86,1.8-1.51,3.67-2.59,5.47-.58.79-.86,2.09-2.09,2.38-1.3-.86-.43-2.3-.29-3.24.36-2.3.86-4.54,1.37-6.62a8.34,8.34,0,0,0-.36-5,3.34,3.34,0,0,0-4-2.23,10.56,10.56,0,0,0-3.67,1.44A17.06,17.06,0,0,0,218,39.12a.75.75,0,0,1-1-.72c0-.72,0-1.58.07-2.3a44,44,0,0,0,.43-8.71A29.26,29.26,0,0,0,215.59,18a7.28,7.28,0,0,0-2-3.17,1.92,1.92,0,0,0-3.1.65,8.83,8.83,0,0,0-.5,2.3c-.36,3.38-.5,6.77-.72,9.94a124.34,124.34,0,0,1-1.51,13.68c-.39,2.1-.73,4.17-1.07,6.24-.62.1-.08.17-1.81.6-5,1.22-4.9-.07-8-2a12,12,0,0,1-1.51-1.15c-3-2.23-3.17-3.53-1.3-6.77a9.47,9.47,0,0,1,2-2.16c.79-.65,1.58-1.3,2.45-1.94,1.8-1.58,2.09-3.46-.79-5.11a4.71,4.71,0,0,0-3-.65c-3.38.5-6.34,1.87-8.28,4.9-3,4.61-2.74,8.5,1.94,12a3.32,3.32,0,0,0,.5.5c.39.22.76.45,1.14.68l-.06,0a3.06,3.06,0,0,0-.79.86L188,49.35a38.79,38.79,0,0,1-2.38,3.6c-.58.79-1.3,1.73-2.52,1.3-1-.36-1.15-1.37-1.22-2.3-.07-.72-.07-1.51-.07-2.3.14-2.74.22-5.47.36-9.22a46.76,46.76,0,0,0-.86-5.11,5.28,5.28,0,0,0-6.91-3.89,8.17,8.17,0,0,0-3.67,2.09,27.92,27.92,0,0,0-6.48,10,13.86,13.86,0,0,0-.58,5.4c.22,3.38,1.87,5.18,5.18,5.83a5.65,5.65,0,0,0,3.46-.14c1.94-.94,3.17-.58,4.75,1,2.81,2.88,6.62,3,9.86.43a14.94,14.94,0,0,0,5.14-8.33l.19.12c3.74,2,3.74,2.45.58,5.54a20.63,20.63,0,0,0-2.09,2.23c-1.73,2.3-1.66,4.68.14,7.06a6.92,6.92,0,0,0,6.26,2.59,7.76,7.76,0,0,0,1.3,0c4-.36,7.56-2.81,6.26-8.42-.22-.79-.58-1.66-.86-2.52-.5-1.87-.36-2.38,1.73-3l.51-.11-.08.48a2.94,2.94,0,0,0,.79,2.74,4.35,4.35,0,0,0,6.77-1.22,30.15,30.15,0,0,0,1.58-5.11c.65-3.38,2.81-5.83,5.26-8.06a3.57,3.57,0,0,1,2.88-1.22c.36.86-.29,1.44-.5,2.23a28.14,28.14,0,0,0-2.16,9.36,5.76,5.76,0,0,0,4,5.9c2.38.86,4.39.22,6.26-2,2.3-2.88,3.31-6.34,4.39-9.65V44.3A1.31,1.31,0,0,0,234.67,43.15Zm-58.61-4c-.29,2.3-.58,4.61-.94,6.91a7.56,7.56,0,0,1-2.52,4.68,2.16,2.16,0,0,1-1.44.36c-.72-.07-1-.72-1-1.44a8.1,8.1,0,0,1,.14-2.3A26,26,0,0,1,175.41,38C176.13,38.4,176.13,38.76,176.06,39.12Zm18.72,21.31a1.13,1.13,0,0,1-1.37-1.22,2.32,2.32,0,0,1,.14-.86c.72-1.8,2-2.88,2.88-2.59a1.53,1.53,0,0,1,.72.79A4,4,0,0,1,194.78,60.43Z"/></g></g></svg>